<svg width="33" height="24" viewBox="0 0 33 24" fill="none" xmlns="http://www.w3.org/2000/svg">
<path d="M32.1822 20.7273H31.0771C31.438 20.258 31.6348 19.6828 31.6367 19.0909V8.85617C31.6377 8.55202 31.5537 8.25372 31.3937 7.99515C31.234 7.7363 31.0048 7.52761 30.7323 7.39271L29.4549 6.75399V5.3543C29.9436 5.18214 30.3218 4.78815 30.4735 4.29262C30.6253 3.79709 30.5327 3.25892 30.2242 2.8425C29.9156 2.4261 29.4277 2.18091 28.9095 2.18184H27.8185V0.545461C27.8185 0.400817 27.7611 0.262014 27.6588 0.159742C27.5565 0.0574697 27.4177 0 27.2731 0H25.0912C24.79 0 24.5458 0.244242 24.5458 0.545461V2.18184H23.4548C22.9367 2.18087 22.4486 2.42608 22.1401 2.8425C21.8316 3.25891 21.7391 3.79703 21.8908 4.29262C22.0425 4.78821 22.4207 5.18219 22.9094 5.3543V6.75399L21.6319 7.39271C21.3595 7.52761 21.1303 7.7363 20.9706 7.99515C20.8106 8.25375 20.7266 8.55206 20.7276 8.85617V19.0909C20.7295 19.6828 20.9263 20.258 21.2872 20.7273H19.0771C19.438 20.258 19.6347 19.6828 19.6367 19.0909V16.909C19.6347 16.2126 19.3661 15.5435 18.8862 15.0389C18.406 14.5346 17.7509 14.2331 17.0555 14.1963C18.6712 13.0774 19.6355 11.2377 19.6367 9.27259C19.6367 9.12794 19.5792 8.98914 19.4769 8.88687C19.3747 8.7846 19.2359 8.72713 19.0912 8.72713H15.8184C15.0648 8.72688 14.318 8.86983 13.6176 9.14815C13.5275 6.89786 12.4646 4.79737 10.7047 3.39208C10.5055 3.23234 10.2221 3.23234 10.0228 3.39208C8.26304 4.79737 7.20011 6.89786 7.10996 9.14815C6.40966 8.86983 5.66278 8.72688 4.90911 8.72713H1.63634C1.33513 8.72713 1.09088 8.97137 1.09088 9.27259C1.09356 11.3497 2.17083 13.2776 3.93875 14.3682C3.42349 14.5645 2.97955 14.9123 2.66592 15.3659C2.3523 15.8196 2.18353 16.3575 2.18183 16.909V18.6387C1.86308 18.7519 1.58694 18.9611 1.39163 19.2372C1.19634 19.5136 1.09138 19.8436 1.0909 20.1818C1.0926 20.3681 1.12669 20.5526 1.19122 20.7272H0.545461C0.244242 20.7272 0 20.9715 0 21.2727C0.000974037 21.9957 0.288558 22.689 0.799676 23.2003C1.31104 23.7114 2.0043 23.999 2.7273 24H30.0003C30.7233 23.999 31.4166 23.7114 31.928 23.2003C32.4391 22.689 32.7266 21.9957 32.7276 21.2727C32.7276 21.1281 32.6702 20.9893 32.5679 20.887C32.4656 20.7847 32.3268 20.7272 32.1822 20.7272L32.1822 20.7273ZM21.8185 19.0909V8.85617C21.8185 8.64943 21.9353 8.46071 22.1202 8.36842L23.6986 7.5819C23.8844 7.48912 24.0015 7.29869 24.0003 7.09098V5.4546H24.5457V7.09098C24.5457 7.23563 24.6032 7.37443 24.7055 7.4767C24.8077 7.57897 24.9465 7.63644 25.0912 7.63644H27.273C27.4177 7.63644 27.5565 7.57897 27.6587 7.4767C27.761 7.37443 27.8185 7.23563 27.8185 7.09098V5.4546H28.364V7.09098C28.364 7.29772 28.4806 7.48669 28.6657 7.57922L30.2443 8.36842H30.2441C30.4289 8.46071 30.5458 8.64943 30.5458 8.85617V19.0909C30.5458 19.5248 30.3734 19.9412 30.0665 20.248C29.7597 20.5548 29.3433 20.7272 28.9094 20.7272H23.4548C23.0209 20.7272 22.6045 20.5548 22.2977 20.248C21.9909 19.9412 21.8185 19.5248 21.8185 19.0909H21.8185ZM13.6365 14.1817H12.3328L18.3694 10.5598C18.0862 11.5986 17.4699 12.5156 16.6147 13.1702C15.7597 13.8245 14.7134 14.1797 13.6366 14.1817H13.6365ZM15.8184 9.81805H17.4852L11.0182 13.6974C11.2551 12.5999 11.8605 11.6166 12.7338 10.9107C13.607 10.205 14.6955 9.81948 15.8183 9.81805H15.8184ZM10.9092 5.10028C11.9666 6.31831 12.5478 7.87777 12.5456 9.49077V9.70189C11.904 10.1244 11.3488 10.665 10.9092 11.2952V5.10028ZM8.18193 9.49077C8.17926 7.87727 8.76051 6.31713 9.81832 5.09885V11.2952C9.37878 10.665 8.82358 10.1244 8.18193 9.70185V9.49077ZM4.90917 9.81805C6.03201 9.81951 7.1205 10.205 7.99367 10.9107C8.86691 11.6166 9.47228 12.5999 9.70922 13.6974L3.24224 9.81805H4.90917ZM2.35816 10.5598L8.39476 14.1817H7.09101C6.01424 14.1798 4.96783 13.8245 4.11292 13.1702C3.2577 12.5156 2.64143 11.5986 2.35822 10.5598H2.35816ZM2.18186 20.1817C2.18186 19.8805 2.4261 19.6362 2.72732 19.6362H15.8184C16.403 19.6362 16.9431 19.3243 17.2356 18.818C17.5278 18.3118 17.5278 17.6879 17.2356 17.1816C16.9431 16.6754 16.403 16.3635 15.8184 16.3635H4.90916C4.60794 16.3635 4.3637 16.6077 4.3637 16.9089C4.3637 17.2101 4.60794 17.4544 4.90916 17.4544H15.8184C16.1196 17.4544 16.3638 17.6986 16.3638 17.9998C16.3638 18.3011 16.1196 18.5453 15.8184 18.5453H3.27278V16.9089C3.27278 16.475 3.44518 16.0586 3.75201 15.7518C4.05883 15.445 4.47526 15.2726 4.90913 15.2726H16.9093C17.3432 15.2726 17.7596 15.445 18.0664 15.7518C18.3732 16.0586 18.5456 16.475 18.5456 16.9089V19.0908C18.5456 19.5247 18.3732 19.9411 18.0664 20.2479C17.7596 20.5546 17.3431 20.7271 16.9093 20.7271H2.72729C2.42607 20.7271 2.18183 20.4829 2.18183 20.1816L2.18186 20.1817Z" fill="white"/>
</svg>
